<svg width="98" height="103" viewBox="0 0 98 103" fill="none" xmlns="http://www.w3.org/2000/svg">
<g filter="url(#filter0_dd_28_5)">
<path fill-rule="evenodd" clip-rule="evenodd" d="M46.4904 6.34716C47.6748 4.5389 50.3251 4.5389 51.5095 6.34716L64.6602 26.424H33.3397L46.4904 6.34716ZM17.6792 50.3325L33.3397 26.424H7.57009C5.18501 26.424 3.75366 29.0727 5.06053 31.0678L17.6792 50.3325ZM33.3398 74.2411L17.6792 50.3325L5.06042 69.5973C3.75355 71.5925 5.1849 74.2411 7.56998 74.2411H33.3398ZM64.6603 74.2411H33.3398L46.4905 94.3179C47.6749 96.1262 50.3252 96.1262 51.5096 94.318L64.6603 74.2411ZM80.3208 50.3326L64.6602 26.424H90.43C92.8151 26.424 94.2464 29.0727 92.9396 31.0678L80.3208 50.3326ZM80.3208 50.3326L64.6603 74.2411H90.4299C92.815 74.2411 94.2463 71.5924 92.9395 69.5973L80.3208 50.3326ZM51.8864 42.8636C52.485 43.2565 52.9248 43.7474 53.2058 44.3366C53.5156 44.9859 54.0874 45.5455 54.8067 45.5455V45.5455C55.6086 45.5455 56.2725 44.8701 56.0436 44.1016C55.8624 43.4929 55.5751 42.925 55.1818 42.3977C54.5 41.4735 53.5758 40.7462 52.4091 40.2159C51.2424 39.678 49.9091 39.4091 48.4091 39.4091C46.9242 39.4091 45.5795 39.6818 44.375 40.2273C43.178 40.7652 42.2235 41.5227 41.5114 42.5C40.8068 43.4697 40.4545 44.6061 40.4545 45.9091C40.4545 47.4773 40.9848 48.7462 42.0455 49.7159C43.1061 50.6856 44.5455 51.4318 46.3636 51.9545L49.2273 52.7727C50.0455 53 50.8068 53.2652 51.5114 53.5682C52.2159 53.8712 52.7841 54.2652 53.2159 54.75C53.6477 55.2348 53.8636 55.8636 53.8636 56.6364C53.8636 57.4848 53.6136 58.2273 53.1136 58.8636C52.6136 59.4924 51.9356 59.9848 51.0795 60.3409C50.2235 60.6894 49.2576 60.8636 48.1818 60.8636C47.2576 60.8636 46.3939 60.7273 45.5909 60.4545C44.7955 60.1742 44.1364 59.75 43.6136 59.1818C43.3779 58.9183 43.1881 58.623 43.0444 58.296C42.7393 57.602 42.1451 57 41.387 57V57C40.5393 57 39.851 57.7293 40.0969 58.5406C40.2954 59.1958 40.5927 59.7996 40.9886 60.3523C41.6856 61.3144 42.6402 62.0644 43.8523 62.6023C45.072 63.1402 46.5152 63.4091 48.1818 63.4091C49.9697 63.4091 51.4886 63.1098 52.7386 62.5114C53.9962 61.9129 54.9508 61.1061 55.6023 60.0909C56.2614 59.0758 56.5909 57.9394 56.5909 56.6818C56.5909 55.5909 56.3674 54.6705 55.9205 53.9205C55.4735 53.1705 54.9053 52.5568 54.2159 52.0795C53.5341 51.5947 52.8182 51.2121 52.0682 50.9318C51.3258 50.6515 50.6515 50.4318 50.0455 50.2727L47.6818 49.6364C47.25 49.5227 46.7765 49.375 46.2614 49.1932C45.7462 49.0038 45.2538 48.7652 44.7841 48.4773C44.3144 48.1818 43.928 47.8144 43.625 47.375C43.3295 46.928 43.1818 46.3939 43.1818 45.7727C43.1818 45.0303 43.3939 44.3674 43.8182 43.7841C44.25 43.2008 44.8485 42.7424 45.6136 42.4091C46.3864 42.0758 47.2879 41.9091 48.3182 41.9091C49.7273 41.9091 50.9167 42.2273 51.8864 42.8636Z" fill="#FA3A7F"/>
</g>
<defs>
<filter id="filter0_dd_28_5" x="0.565002" y="0.990967" width="96.87" height="101.683" filterUnits="userSpaceOnUse" color-interpolation-filters="sRGB">
<feFlood flood-opacity="0" result="BackgroundImageFix"/>
<feColorMatrix in="SourceAlpha" type="matrix" values="0 0 0 0 0 0 0 0 0 0 0 0 0 0 0 0 0 0 127 0" result="hardAlpha"/>
<feOffset dy="3"/>
<feGaussianBlur stdDeviation="2"/>
<feComposite in2="hardAlpha" operator="out"/>
<feColorMatrix type="matrix" values="0 0 0 0 0.211765 0 0 0 0 0.858824 0 0 0 0 0.898039 0 0 0 0.35 0"/>
<feBlend mode="normal" in2="BackgroundImageFix" result="effect1_dropShadow_28_5"/>
<feColorMatrix in="SourceAlpha" type="matrix" values="0 0 0 0 0 0 0 0 0 0 0 0 0 0 0 0 0 0 127 0" result="hardAlpha"/>
<feOffset dy="-3"/>
<feGaussianBlur stdDeviation="0.5"/>
<feComposite in2="hardAlpha" operator="out"/>
<feColorMatrix type="matrix" values="0 0 0 0 0.211765 0 0 0 0 0.858824 0 0 0 0 0.898039 0 0 0 0.1 0"/>
<feBlend mode="normal" in2="effect1_dropShadow_28_5" result="effect2_dropShadow_28_5"/>
<feBlend mode="normal" in="SourceGraphic" in2="effect2_dropShadow_28_5" result="shape"/>
</filter>
</defs>
</svg>
