<svg width="89" height="92" viewBox="0 0 89 92" fill="none" xmlns="http://www.w3.org/2000/svg">
<g filter="url(#filter0_dd_16_56)">
<path fill-rule="evenodd" clip-rule="evenodd" d="M42.2714 5.89519C43.4587 4.11274 46.0776 4.11274 47.265 5.89518L58.9192 23.3908H30.6172L42.2714 5.89519ZM16.466 44.6347L30.6172 23.3908H7.91798C5.5224 23.3908 4.09312 26.0602 5.4212 28.0539L16.466 44.6347ZM30.6172 65.8787L16.466 44.6347L5.42111 61.2156C4.09303 63.2093 5.5223 65.8787 7.91788 65.8787H30.6172ZM58.9193 65.8787H30.6172L42.2715 83.3743C43.4588 85.1568 46.0777 85.1568 47.2651 83.3743L58.9193 65.8787ZM73.0704 44.6348L58.9192 23.3908H81.6186C84.0142 23.3908 85.4434 26.0602 84.1153 28.0539L73.0704 44.6348ZM73.0704 44.6348L58.9193 65.8787H81.6185C84.0141 65.8787 85.4433 63.2093 84.1153 61.2156L73.0704 44.6348ZM48.8864 37.8636C49.485 38.2565 49.9248 38.7474 50.2058 39.3366C50.5156 39.9859 51.0874 40.5455 51.8067 40.5455V40.5455C52.6086 40.5455 53.2725 39.8701 53.0436 39.1016C52.8624 38.4929 52.5751 37.925 52.1818 37.3977C51.5 36.4735 50.5758 35.7462 49.4091 35.2159C48.2424 34.678 46.9091 34.4091 45.4091 34.4091C43.9242 34.4091 42.5795 34.6818 41.375 35.2273C40.178 35.7651 39.2235 36.5227 38.5114 37.5C37.8068 38.4697 37.4545 39.6061 37.4545 40.9091C37.4545 42.4773 37.9848 43.7462 39.0455 44.7159C40.1061 45.6856 41.5455 46.4318 43.3636 46.9545L46.2273 47.7727C47.0455 48 47.8068 48.2652 48.5114 48.5682C49.2159 48.8712 49.7841 49.2652 50.2159 49.75C50.6477 50.2348 50.8636 50.8636 50.8636 51.6364C50.8636 52.4848 50.6136 53.2273 50.1136 53.8636C49.6136 54.4924 48.9356 54.9848 48.0795 55.3409C47.2235 55.6894 46.2576 55.8636 45.1818 55.8636C44.2576 55.8636 43.3939 55.7273 42.5909 55.4545C41.7955 55.1742 41.1364 54.75 40.6136 54.1818C40.3779 53.9183 40.1881 53.623 40.0444 53.296C39.7393 52.602 39.1451 52 38.387 52V52C37.5393 52 36.851 52.7293 37.0969 53.5406C37.2954 54.1958 37.5927 54.7996 37.9886 55.3523C38.6856 56.3144 39.6402 57.0644 40.8523 57.6023C42.072 58.1402 43.5152 58.4091 45.1818 58.4091C46.9697 58.4091 48.4886 58.1098 49.7386 57.5114C50.9962 56.9129 51.9508 56.1061 52.6023 55.0909C53.2614 54.0758 53.5909 52.9394 53.5909 51.6818C53.5909 50.5909 53.3674 49.6705 52.9205 48.9205C52.4735 48.1705 51.9053 47.5568 51.2159 47.0795C50.5341 46.5947 49.8182 46.2121 49.0682 45.9318C48.3258 45.6515 47.6515 45.4318 47.0455 45.2727L44.6818 44.6364C44.25 44.5227 43.7765 44.375 43.2614 44.1932C42.7462 44.0038 42.2538 43.7652 41.7841 43.4773C41.3144 43.1818 40.928 42.8144 40.625 42.375C40.3295 41.928 40.1818 41.3939 40.1818 40.7727C40.1818 40.0303 40.3939 39.3674 40.8182 38.7841C41.25 38.2008 41.8485 37.7424 42.6136 37.4091C43.3864 37.0758 44.2879 36.9091 45.3182 36.9091C46.7273 36.9091 47.9167 37.2273 48.8864 37.8636Z" fill="#36DBE5"/>
</g>
<defs>
<filter id="filter0_dd_16_56" x="0.912842" y="0.55835" width="87.7107" height="91.1528" filterUnits="userSpaceOnUse" color-interpolation-filters="sRGB">
<feFlood flood-opacity="0" result="BackgroundImageFix"/>
<feColorMatrix in="SourceAlpha" type="matrix" values="0 0 0 0 0 0 0 0 0 0 0 0 0 0 0 0 0 0 127 0" result="hardAlpha"/>
<feOffset dy="3"/>
<feGaussianBlur stdDeviation="2"/>
<feComposite in2="hardAlpha" operator="out"/>
<feColorMatrix type="matrix" values="0 0 0 0 0.211765 0 0 0 0 0.858824 0 0 0 0 0.898039 0 0 0 0.35 0"/>
<feBlend mode="normal" in2="BackgroundImageFix" result="effect1_dropShadow_16_56"/>
<feColorMatrix in="SourceAlpha" type="matrix" values="0 0 0 0 0 0 0 0 0 0 0 0 0 0 0 0 0 0 127 0" result="hardAlpha"/>
<feOffset dy="-3"/>
<feGaussianBlur stdDeviation="0.5"/>
<feComposite in2="hardAlpha" operator="out"/>
<feColorMatrix type="matrix" values="0 0 0 0 0.211765 0 0 0 0 0.858824 0 0 0 0 0.898039 0 0 0 0.1 0"/>
<feBlend mode="normal" in2="effect1_dropShadow_16_56" result="effect2_dropShadow_16_56"/>
<feBlend mode="normal" in="SourceGraphic" in2="effect2_dropShadow_16_56" result="shape"/>
</filter>
</defs>
</svg>
