<?xml version="1.0" encoding="UTF-8"?>
<svg xmlns="http://www.w3.org/2000/svg" xmlns:xlink="http://www.w3.org/1999/xlink" viewBox="0 0 48 48" width="48px" height="48px">
<g id="surface29417237">
<path style=" stroke:none;fill-rule:nonzero;fill:rgb(0%,100%,0%);fill-opacity:1;" d="M 9.699219 47.398438 L 38.300781 47.398438 C 43.324219 47.398438 47.398438 43.324219 47.398438 38.300781 L 47.398438 9.699219 C 47.398438 4.675781 43.324219 0.601562 38.300781 0.601562 L 9.699219 0.601562 C 4.675781 0.601562 0.601562 4.675781 0.601562 9.699219 L 0.601562 38.300781 C 0.601562 43.324219 4.675781 47.398438 9.699219 47.398438 Z M 9.699219 47.398438 "/>
<path style=" stroke:none;fill-rule:nonzero;fill:rgb(0%,0%,0%);fill-opacity:1;" d="M 38.886719 33.152344 L 32.890625 29.1875 C 32.15625 28.742188 31.242188 28.734375 30.503906 29.164062 C 30.503906 29.164062 30.503906 29.164062 27.929688 30.664062 C 27.585938 30.863281 27.253906 30.902344 26.988281 30.851562 C 26.648438 30.789062 26.414062 30.605469 26.398438 30.589844 C 24.984375 29.554688 23.332031 28.183594 21.574219 26.425781 C 19.8125 24.664062 18.441406 23.015625 17.40625 21.601562 C 17.394531 21.582031 17.207031 21.347656 17.144531 21.011719 C 17.097656 20.742188 17.132812 20.410156 17.332031 20.066406 C 18.832031 17.496094 18.832031 17.496094 18.832031 17.496094 C 19.261719 16.753906 19.253906 15.839844 18.808594 15.109375 L 14.84375 9.113281 C 14.351562 8.371094 13.347656 8.171875 12.617188 8.679688 C 12.617188 8.679688 10.738281 9.964844 10.117188 10.402344 C 9.125 11.101562 8.804688 12.167969 8.804688 13.648438 C 8.800781 15.734375 10.597656 22.265625 18.164062 29.832031 C 25.734375 37.402344 32.265625 39.195312 34.347656 39.195312 C 35.832031 39.191406 36.894531 38.871094 37.59375 37.878906 C 38.03125 37.261719 39.316406 35.382812 39.316406 35.382812 C 39.824219 34.648438 39.628906 33.644531 38.886719 33.152344 Z M 38.886719 33.152344 "/>
</g>
</svg>
