<?xml version="1.0" encoding="UTF-8"?>
<svg xmlns="http://www.w3.org/2000/svg" xmlns:xlink="http://www.w3.org/1999/xlink" viewBox="0 0 48 48" width="48px" height="48px">
<g id="surface36393234">
<path style=" stroke:none;fill-rule:nonzero;fill:rgb(16.078432%,71.372551%,96.470588%);fill-opacity:1;" d="M 24 0.199219 C 10.910156 0.199219 0.199219 10.910156 0.199219 24 C 0.199219 37.089844 10.910156 47.800781 24 47.800781 C 37.089844 47.800781 47.800781 37.089844 47.800781 24 C 47.800781 10.910156 37.089844 0.199219 24 0.199219 Z M 24 0.199219 "/>
<path style=" stroke:none;fill-rule:nonzero;fill:rgb(100%,100%,100%);fill-opacity:1;" d="M 35.898438 13.289062 L 31.496094 36.019531 C 31.496094 36.019531 31.257812 37.089844 30.070312 37.089844 C 29.355469 37.089844 28.996094 36.734375 28.996094 36.734375 L 19.238281 28.761719 L 14.480469 26.378906 L 8.410156 24.714844 C 8.410156 24.714844 7.339844 24.355469 7.339844 23.523438 C 7.339844 22.808594 8.410156 22.453125 8.410156 22.453125 L 33.757812 12.339844 C 33.757812 12.339844 34.589844 12.101562 35.066406 12.101562 C 35.425781 12.101562 35.78125 12.21875 35.78125 12.695312 C 35.898438 13.050781 35.898438 13.289062 35.898438 13.289062 Z M 35.898438 13.289062 "/>
<path style=" stroke:none;fill-rule:nonzero;fill:rgb(69.01961%,74.509805%,77.254903%);fill-opacity:1;" d="M 22.808594 31.734375 L 18.765625 35.78125 C 18.765625 35.78125 18.644531 35.898438 18.40625 35.898438 C 18.289062 35.898438 18.289062 35.898438 18.167969 35.898438 L 19.359375 28.761719 Z M 22.808594 31.734375 "/>
<path style=" stroke:none;fill-rule:nonzero;fill:rgb(81.176472%,84.705883%,86.274511%);fill-opacity:1;" d="M 31.019531 17.097656 C 30.78125 16.859375 30.425781 16.742188 30.1875 16.980469 L 14.480469 26.378906 C 14.480469 26.378906 16.980469 33.402344 17.335938 34.589844 C 17.691406 35.78125 18.050781 35.78125 18.050781 35.78125 L 19.238281 28.640625 L 30.902344 17.8125 C 31.140625 17.691406 31.257812 17.335938 31.019531 17.097656 Z M 31.019531 17.097656 "/>
</g>
</svg>
