<?xml version="1.0" encoding="UTF-8"?>
<svg xmlns="http://www.w3.org/2000/svg" xmlns:xlink="http://www.w3.org/1999/xlink" viewBox="0 0 48 48" width="48px" height="48px">
<g id="surface36667172">
<path style=" stroke:none;fill-rule:nonzero;fill:rgb(100%,100%,100%);fill-opacity:1;" d="M 1.460938 46.773438 L 4.648438 35.210938 C 2.640625 31.789062 1.578125 27.894531 1.578125 24 C 1.578125 11.609375 11.609375 1.578125 24 1.578125 C 30.019531 1.578125 35.5625 3.941406 39.8125 8.1875 C 44.058594 12.4375 46.421875 17.980469 46.421875 24 C 46.421875 36.390625 36.390625 46.421875 24 46.421875 C 20.222656 46.421875 16.566406 45.476562 13.261719 43.707031 Z M 1.460938 46.773438 "/>
<path style=" stroke:none;fill-rule:nonzero;fill:rgb(100%,100%,100%);fill-opacity:1;" d="M 1.460938 47.363281 C 1.34375 47.363281 1.109375 47.246094 0.988281 47.246094 C 0.871094 47.128906 0.753906 46.890625 0.871094 46.65625 L 3.941406 35.210938 C 2.050781 31.789062 0.988281 27.894531 0.988281 23.882812 C 0.988281 11.257812 11.375 0.988281 24 0.988281 C 30.136719 0.988281 35.917969 3.351562 40.285156 7.714844 C 44.648438 12.082031 47.011719 17.863281 47.011719 24 C 47.011719 36.625 36.742188 47.011719 24 47.011719 C 20.222656 47.011719 16.566406 46.066406 13.261719 44.296875 L 1.578125 47.363281 Z M 1.460938 47.363281 "/>
<path style=" stroke:none;fill-rule:nonzero;fill:rgb(81.176472%,84.705883%,86.274511%);fill-opacity:1;" d="M 24 1.578125 C 30.019531 1.578125 35.5625 3.941406 39.8125 8.1875 C 44.058594 12.4375 46.421875 17.980469 46.421875 24 C 46.421875 36.390625 36.390625 46.421875 24 46.421875 C 20.222656 46.421875 16.566406 45.476562 13.261719 43.707031 L 1.460938 46.773438 L 4.648438 35.210938 C 2.640625 31.789062 1.578125 27.894531 1.578125 24 C 1.578125 11.609375 11.609375 1.578125 24 1.578125 M 24 46.421875 L 24 46.421875 M 24 46.421875 L 24 46.421875 M 24 0.398438 C 11.019531 0.398438 0.398438 11.019531 0.398438 24 C 0.398438 28.011719 1.34375 31.90625 3.351562 35.328125 L 0.28125 46.421875 C 0.164062 46.773438 0.28125 47.246094 0.636719 47.601562 C 0.871094 47.835938 1.109375 47.953125 1.460938 47.953125 C 1.578125 47.953125 1.699219 47.953125 1.816406 47.953125 L 13.261719 45.003906 C 16.566406 46.773438 20.34375 47.601562 24.117188 47.601562 C 37.097656 47.601562 47.71875 36.980469 47.71875 24 C 47.71875 17.746094 45.238281 11.726562 40.875 7.363281 C 36.273438 2.878906 30.371094 0.398438 24 0.398438 Z M 24 0.398438 "/>
<path style=" stroke:none;fill-rule:nonzero;fill:rgb(25.098041%,76.47059%,31.764707%);fill-opacity:1;" d="M 37.214844 10.785156 C 33.675781 7.242188 29.074219 5.355469 24 5.355469 C 13.734375 5.355469 5.355469 13.734375 5.355469 24 C 5.355469 27.539062 6.300781 30.960938 8.1875 33.910156 L 8.660156 34.621094 L 6.773438 41.464844 L 13.851562 39.574219 L 14.558594 39.929688 C 17.390625 41.582031 20.695312 42.527344 24 42.527344 C 34.265625 42.527344 42.644531 34.148438 42.644531 23.882812 C 42.644531 19.042969 40.757812 14.324219 37.214844 10.785156 Z M 37.214844 10.785156 "/>
<path style=" stroke:none;fill-rule:evenodd;fill:rgb(100%,100%,100%);fill-opacity:1;" d="M 18.453125 14.558594 C 17.980469 13.617188 17.628906 13.617188 17.15625 13.617188 C 16.800781 13.617188 16.449219 13.617188 16.09375 13.617188 C 15.738281 13.617188 15.148438 13.734375 14.558594 14.324219 C 14.089844 14.914062 12.554688 16.210938 12.554688 19.042969 C 12.554688 21.875 14.558594 24.472656 14.796875 24.824219 C 15.03125 25.179688 18.691406 31.078125 24.355469 33.320312 C 29.074219 35.210938 30.019531 34.855469 31.078125 34.738281 C 32.140625 34.621094 34.382812 33.441406 34.855469 32.023438 C 35.328125 30.726562 35.328125 29.546875 35.210938 29.308594 C 35.09375 29.074219 34.738281 28.957031 34.148438 28.601562 C 33.558594 28.246094 30.84375 26.949219 30.371094 26.832031 C 29.898438 26.597656 29.429688 26.597656 29.074219 27.066406 C 28.71875 27.65625 27.65625 28.839844 27.304688 29.308594 C 26.949219 29.664062 26.597656 29.78125 26.125 29.429688 C 25.535156 29.191406 23.765625 28.601562 21.640625 26.597656 C 19.988281 25.0625 18.808594 23.292969 18.570312 22.703125 C 18.21875 22.113281 18.570312 21.875 18.808594 21.523438 C 19.042969 21.285156 19.398438 20.8125 19.632812 20.578125 C 19.871094 20.222656 19.988281 19.988281 20.222656 19.632812 C 20.460938 19.28125 20.34375 18.925781 20.222656 18.691406 C 19.988281 18.453125 18.925781 15.738281 18.453125 14.558594 Z M 18.453125 14.558594 "/>
</g>
</svg>
