<svg width="130" height="131" viewBox="0 0 130 131" fill="none" xmlns="http://www.w3.org/2000/svg">
<g filter="url(#filter0_dd_28_5)">
<path fill-rule="evenodd" clip-rule="evenodd" d="M62.3531 5.30744C63.5443 3.56419 66.1158 3.56419 67.307 5.30744L85.9994 32.6625H43.6606L62.3531 5.30744ZM22.4912 63.6425L43.6606 32.6625H7.00527C4.59361 32.6625 3.1677 35.3639 4.52833 37.3551L22.4912 63.6425ZM43.6608 94.6227L22.4912 63.6425L4.52819 89.9301C3.16756 91.9213 4.59347 94.6227 7.00514 94.6227H43.6608ZM85.9995 94.6227H43.6608L62.3532 121.978C63.5444 123.721 66.1159 123.721 67.3071 121.978L85.9995 94.6227ZM107.169 63.6427L85.9994 32.6625H122.655C125.067 32.6625 126.493 35.3639 125.132 37.3551L107.169 63.6427ZM107.169 63.6427L85.9995 94.6227H122.655C125.067 94.6227 126.492 91.9213 125.132 89.9301L107.169 63.6427ZM71.0937 50.3125C71.9168 50.8526 72.5216 51.5277 72.908 52.3378C73.3339 53.2305 74.1201 54 75.1093 54V54C76.2119 54 77.1247 53.0714 76.81 52.0146C76.5608 51.1778 76.1658 50.3969 75.625 49.6719C74.6875 48.401 73.4167 47.401 71.8125 46.6719C70.2083 45.9323 68.375 45.5625 66.3125 45.5625C64.2708 45.5625 62.4219 45.9375 60.7656 46.6875C59.1198 47.4271 57.8073 48.4688 56.8281 49.8125C55.8594 51.1458 55.375 52.7083 55.375 54.5C55.375 56.6563 56.1042 58.401 57.5625 59.7344C59.0208 61.0677 61 62.0938 63.5 62.8125L67.4375 63.9375C68.5625 64.25 69.6094 64.6146 70.5781 65.0313C71.5469 65.4479 72.3281 65.9896 72.9219 66.6563C73.5156 67.3229 73.8125 68.1875 73.8125 69.25C73.8125 70.4167 73.4687 71.4375 72.7812 72.3125C72.0937 73.1771 71.1615 73.8542 69.9844 74.3438C68.8073 74.8229 67.4792 75.0625 66 75.0625C64.7292 75.0625 63.5417 74.875 62.4375 74.5C61.3437 74.1146 60.4375 73.5313 59.7187 72.75C59.3946 72.3877 59.1336 71.9817 58.936 71.5321C58.5165 70.5778 57.6996 69.75 56.6571 69.75V69.75C55.4915 69.75 54.5451 70.7528 54.8832 71.8684C55.1562 72.7692 55.5649 73.5995 56.1094 74.3594C57.0677 75.6823 58.3802 76.7135 60.0469 77.4531C61.724 78.1927 63.7083 78.5625 66 78.5625C68.4583 78.5625 70.5469 78.151 72.2656 77.3281C73.9948 76.5052 75.3073 75.3958 76.2031 74C77.1094 72.6042 77.5625 71.0417 77.5625 69.3125C77.5625 67.8125 77.2552 66.5469 76.6406 65.5156C76.026 64.4844 75.2448 63.6406 74.2969 62.9844C73.3594 62.3177 72.375 61.7917 71.3437 61.4063C70.3229 61.0208 69.3958 60.7188 68.5625 60.5L65.3125 59.625C64.7187 59.4688 64.0677 59.2656 63.3594 59.0156C62.651 58.7552 61.974 58.4271 61.3281 58.0313C60.6823 57.625 60.151 57.1198 59.7344 56.5156C59.3281 55.901 59.125 55.1667 59.125 54.3125C59.125 53.2917 59.4167 52.3802 60 51.5781C60.5937 50.776 61.4167 50.1458 62.4687 49.6875C63.5312 49.2292 64.7708 49 66.1875 49C68.125 49 69.7604 49.4375 71.0937 50.3125Z" fill="#36DBE5"/>
</g>
<defs>
<filter id="filter0_dd_28_5" x="0" y="0" width="129.66" height="130.285" filterUnits="userSpaceOnUse" color-interpolation-filters="sRGB">
<feFlood flood-opacity="0" result="BackgroundImageFix"/>
<feColorMatrix in="SourceAlpha" type="matrix" values="0 0 0 0 0 0 0 0 0 0 0 0 0 0 0 0 0 0 127 0" result="hardAlpha"/>
<feOffset dy="3"/>
<feGaussianBlur stdDeviation="2"/>
<feComposite in2="hardAlpha" operator="out"/>
<feColorMatrix type="matrix" values="0 0 0 0 0.211765 0 0 0 0 0.858824 0 0 0 0 0.898039 0 0 0 0.35 0"/>
<feBlend mode="normal" in2="BackgroundImageFix" result="effect1_dropShadow_28_5"/>
<feColorMatrix in="SourceAlpha" type="matrix" values="0 0 0 0 0 0 0 0 0 0 0 0 0 0 0 0 0 0 127 0" result="hardAlpha"/>
<feOffset dy="-3"/>
<feGaussianBlur stdDeviation="0.5"/>
<feComposite in2="hardAlpha" operator="out"/>
<feColorMatrix type="matrix" values="0 0 0 0 0.211765 0 0 0 0 0.858824 0 0 0 0 0.898039 0 0 0 0.1 0"/>
<feBlend mode="normal" in2="effect1_dropShadow_28_5" result="effect2_dropShadow_28_5"/>
<feBlend mode="normal" in="SourceGraphic" in2="effect2_dropShadow_28_5" result="shape"/>
</filter>
</defs>
</svg>
