<svg width="151" height="151" viewBox="0 0 151 151" fill="none" xmlns="http://www.w3.org/2000/svg">
<g filter="url(#filter0_dd_28_5)">
<path fill-rule="evenodd" clip-rule="evenodd" d="M73.0928 5.52184C74.2849 3.78797 76.845 3.78797 78.037 5.52184L100.235 37.8094H50.8949L73.0928 5.52184ZM26.2243 73.6934L50.8949 37.8094H7.25691C4.84136 37.8094 3.41631 40.5185 4.78479 42.509L26.2243 73.6934ZM50.895 109.578L26.2243 73.6934L4.78464 104.878C3.41616 106.869 4.84121 109.578 7.25675 109.578H50.895ZM100.235 109.578H50.895L73.093 141.865C74.285 143.599 76.8451 143.599 78.0372 141.865L100.235 109.578ZM124.906 73.6936L100.235 37.8094H143.873C146.289 37.8094 147.714 40.5185 146.345 42.509L124.906 73.6936ZM124.906 73.6936L100.235 109.578H143.873C146.289 109.578 147.714 106.869 146.345 104.878L124.906 73.6936ZM80.5277 64.6832C81.3695 65.2357 81.988 65.9261 82.3832 66.7546C82.8188 67.6676 83.6229 68.4545 84.6345 68.4545V68.4545C85.7621 68.4545 86.6957 67.5048 86.3738 66.4241C86.119 65.5682 85.715 64.7695 85.1619 64.0281C84.2031 62.7283 82.9034 61.7056 81.2628 60.9599C79.6222 60.2035 77.7472 59.8253 75.6378 59.8253C73.5497 59.8253 71.6587 60.2088 69.9648 60.9759C68.2816 61.7322 66.9393 62.7976 65.9379 64.1719C64.9471 65.5355 64.4517 67.1335 64.4517 68.9659C64.4517 71.1712 65.1974 72.9556 66.6889 74.3192C68.1804 75.6829 70.2045 76.7322 72.7614 77.4673L76.7884 78.6179C77.9389 78.9375 79.0096 79.3104 80.0004 79.7365C80.9911 80.1626 81.7901 80.7166 82.3974 81.3984C83.0046 82.0803 83.3082 82.9645 83.3082 84.0511C83.3082 85.2443 82.9567 86.2884 82.2536 87.1832C81.5504 88.0675 80.5969 88.7599 79.3931 89.2607C78.1893 89.7507 76.831 89.9957 75.3182 89.9957C74.0185 89.9957 72.804 89.804 71.6747 89.4205C70.5561 89.0263 69.6293 88.4297 68.8942 87.6307C68.5626 87.2601 68.2958 86.8449 68.0936 86.3851C67.6646 85.4091 66.8291 84.5625 65.763 84.5625V84.5625C64.5708 84.5625 63.603 85.5881 63.9487 86.729C64.2279 87.6503 64.6459 88.4995 65.2028 89.2766C66.1829 90.6296 67.5252 91.6843 69.2298 92.4407C70.945 93.1971 72.9744 93.5753 75.3182 93.5753C77.8324 93.5753 79.9684 93.1545 81.7262 92.3129C83.4947 91.4712 84.837 90.3366 85.7532 88.9091C86.68 87.4815 87.1435 85.8835 87.1435 84.1151C87.1435 82.581 86.8292 81.2866 86.2006 80.2319C85.5721 79.1772 84.7731 78.3143 83.8036 77.6431C82.8448 76.9613 81.8381 76.4233 80.7834 76.0291C79.7393 75.6349 78.7912 75.326 77.9389 75.1023L74.6151 74.2074C74.0078 74.0476 73.342 73.8398 72.6175 73.5842C71.8931 73.3178 71.2006 72.9822 70.5401 72.5774C69.8796 72.1619 69.3363 71.6452 68.9102 71.0273C68.4947 70.3988 68.2869 69.6477 68.2869 68.7741C68.2869 67.7301 68.5852 66.7979 69.1818 65.9776C69.7891 65.1573 70.6307 64.5128 71.7067 64.044C72.7933 63.5753 74.0611 63.3409 75.5099 63.3409C77.4915 63.3409 79.1641 63.7884 80.5277 64.6832Z" fill="#FA3A7F"/>
</g>
<defs>
<filter id="filter0_dd_28_5" x="0.251602" y="0.221436" width="150.627" height="149.944" filterUnits="userSpaceOnUse" color-interpolation-filters="sRGB">
<feFlood flood-opacity="0" result="BackgroundImageFix"/>
<feColorMatrix in="SourceAlpha" type="matrix" values="0 0 0 0 0 0 0 0 0 0 0 0 0 0 0 0 0 0 127 0" result="hardAlpha"/>
<feOffset dy="3"/>
<feGaussianBlur stdDeviation="2"/>
<feComposite in2="hardAlpha" operator="out"/>
<feColorMatrix type="matrix" values="0 0 0 0 0.211765 0 0 0 0 0.858824 0 0 0 0 0.898039 0 0 0 0.35 0"/>
<feBlend mode="normal" in2="BackgroundImageFix" result="effect1_dropShadow_28_5"/>
<feColorMatrix in="SourceAlpha" type="matrix" values="0 0 0 0 0 0 0 0 0 0 0 0 0 0 0 0 0 0 127 0" result="hardAlpha"/>
<feOffset dy="-3"/>
<feGaussianBlur stdDeviation="0.5"/>
<feComposite in2="hardAlpha" operator="out"/>
<feColorMatrix type="matrix" values="0 0 0 0 0.211765 0 0 0 0 0.858824 0 0 0 0 0.898039 0 0 0 0.1 0"/>
<feBlend mode="normal" in2="effect1_dropShadow_28_5" result="effect2_dropShadow_28_5"/>
<feBlend mode="normal" in="SourceGraphic" in2="effect2_dropShadow_28_5" result="shape"/>
</filter>
</defs>
</svg>
